<?xml version="1.0" encoding="utf-8"?>
<!-- Generator: Adobe Illustrator 15.0.0, SVG Export Plug-In . SVG Version: 6.00 Build 0)  -->
<!DOCTYPE svg PUBLIC "-//W3C//DTD SVG 1.1//EN" "http://www.w3.org/Graphics/SVG/1.1/DTD/svg11.dtd">
<svg version="1.1" id="Layer_1" xmlns="http://www.w3.org/2000/svg" xmlns:xlink="http://www.w3.org/1999/xlink" x="0px" y="0px"
	 width="850.39px" height="144.79px" viewBox="0 0 850.39 144.79" enable-background="new 0 0 850.39 144.79" xml:space="preserve">
<g>
	<path fill="white" d="M225.86,41.731c-12.009,0-20.411,3.994-24.807,6.794c-1.604,1.004-4.003,3.001-6.201,3.001
		c-2.009,0-2.804-4.407-3.604-5.804c-1.199-2.196-3.197-3.992-8.604-3.992h-21.412v91.222c0,9.395,1.002,11.797,12.009,11.797
		h25.812V79.34c0-0.402,0-1.602,0.795-2.205c0.801-0.602,4.605-3.396,12.405-3.396c9.004,0,13.998,2.398,13.998,13.395v45.82
		c0,9.395,1.007,11.797,12.009,11.797h25.806V82.74C264.065,48.729,245.462,41.731,225.86,41.731z"/>
	<path fill="white" d="M837.192,118.523c-7.457,0-13.059,5.877-13.059,13.13c0,7.564,5.602,13.097,13.059,13.097
		c7.458,0,13.095-5.875,13.095-13.097C850.287,124.058,844.65,118.523,837.192,118.523z M837.192,142.311
		c-5.872,0-10.382-4.434-10.382-10.657c0-6.087,4.51-10.689,10.382-10.689c5.874,0,10.416,4.435,10.416,10.689
		C847.608,137.703,843.066,142.311,837.192,142.311z"/>
	<path fill="white" d="M841.036,132.311c-0.305-0.178-0.372-0.203-0.372-0.35c0-0.137,0.17-0.234,0.442-0.413
		c0.865-0.511,1.21-1.851,1.21-3.089c0-3.335-1.441-4.157-5.947-4.157c-0.588,0-3.269,0.064-4.229,0.099v13.27
		c0,0.722,0.244,0.929,0.885,0.929h1.759v-5.331h2.996c1.374,0,1.818,0.483,1.851,1.651l0.071,2.89
		c0.029,0.616,0.385,0.79,0.998,0.79h1.683l-0.138-3.513C842.182,133.578,842.072,132.926,841.036,132.311z M839.153,130.658
		c-0.137,0.17-0.348,0.276-0.9,0.276h-3.47v-4.267c0.203,0,1.204-0.035,1.989-0.035c2.415,0,2.895,0.482,2.895,2.033
		C839.667,129.697,839.453,130.245,839.153,130.658z"/>
	<path fill="white" d="M561.116,42.019c-30.534,0-50.499,19.561-50.499,51.28c0,32.669,18.963,51.283,50.499,51.283
		c30.935,0,50.292-18.614,50.292-51.283C611.408,61.58,591.456,42.019,561.116,42.019z M561.116,122.934
		c-16.96,0-24.154-10.451-24.154-29.635c0-18.992,7.194-29.629,24.154-29.629c16.971,0,24.354,10.637,24.354,29.629
		C585.47,112.482,578.087,122.934,561.116,122.934z"/>
	<path fill="white" d="M701.447,41.957h-17.569v70.659c0,1.194,0,1.797-1.39,2.992c-1.796,1.598-7.191,5.59-17.369,5.59
		c-13.174,0-17.954-2.199-17.954-16.166V50.513c0-6.79-0.999-8.781-7.989-8.781h-17.77v67.688c0,28.543,14.57,35.33,35.735,35.33
		c10.976,0,18.155-3.59,23.551-6.781c1.991-1.203,3.397-2.398,4.782-2.398c1.209,0,2.003,3.587,3.197,5.585
		c1.401,2.2,2.995,3.595,7.792,3.595h13.169V50.741C709.633,43.948,708.631,41.957,701.447,41.957z"/>
	<path fill="white" d="M492.635,0.011h-17.759v65.021v14.529v56.433c0,6.787,0.795,8.589,7.983,8.589h17.76V79.561V65.032V8.595
		C500.619,1.808,499.826,0.011,492.635,0.011z"/>
	<path fill="white" d="M386.893,93.32c0,32.647,18.924,51.262,50.399,51.303h27.955V130.56c0-6.839-1.797-7.599-8.582-7.599
		h-19.373c-16.891-0.043-24.051-10.491-24.051-29.641c0-18.955,7.16-29.594,24.051-29.637h19.373c6.785,0,8.582-0.759,8.582-7.602
		V42.019h-27.955C406.807,42.064,386.893,61.623,386.893,93.32z"/>
	<path fill="white" d="M805.658,0.011h-17.76v42.008h-17.832c-30.477,0.045-50.4,19.604-50.4,51.302
		c0,32.647,18.932,51.262,50.4,51.303h27.955v-0.041h15.618V79.561V65.032V8.595C813.64,1.808,812.844,0.011,805.658,0.011z
		 M746.019,93.32c0-18.955,7.162-29.594,24.048-29.637h17.832v1.349v14.529v43.4h-17.832
		C753.181,122.918,746.019,112.47,746.019,93.32z"/>
	<path fill="white" d="M325.479,42.044c-32.43,0-51.418,17.918-51.418,51.083c0,33.361,19.884,51.474,51.418,51.474
		c32.42,0,51.411-17.919,51.411-51.095C376.89,60.15,357.188,42.044,325.479,42.044z M325.479,112.822
		c-7.522,0-13.61-8.822-13.61-19.703s6.088-19.703,13.61-19.703c7.512,0,13.605,8.822,13.605,19.703
		S332.991,112.822,325.479,112.822z"/>
	<path fill="white" d="M65.544-0.046c5.574,10.508,7.529,20.929,5.153,30.754c-0.942,3.891-2.527,7.555-4.704,10.99
		c-0.775-0.032-1.559-0.048-2.359-0.048c-10.414,0-20.052,2.654-27.992,7.164c-0.713,0.309-1.437,0.513-2.141,0.513
		c-2.004,0-2.795-2.207-3.605-3.604c-1.195-2.202-3.191-3.992-8.603-3.992h-21.4v91.222c0,9.395,0.995,11.797,12.002,11.797h25.8
		v-34.387v-7.984v-0.684V82.145c0.034-0.032-0.031-0.369,0-0.4v-5.325c8.268-9.444,21.192-15.529,35.73-15.529
		c11.519,0,22.027,3.822,30.004,10.104C103.43,44.721,91.409,21.328,65.544-0.046z"/>
	<path fill="white" d="M139.236,41.731h-25.81v29.693v34.157v27.203c0,9.398,1,11.805,12,11.805h25.812v-29.7V80.734V53.528
		C151.238,44.135,150.237,41.731,139.236,41.731z"/>
</g>
</svg>
