<?xml version="1.0" encoding="utf-8"?>
<!-- Generator: Adobe Illustrator 15.0.0, SVG Export Plug-In . SVG Version: 6.00 Build 0)  -->
<!DOCTYPE svg PUBLIC "-//W3C//DTD SVG 1.1//EN" "http://www.w3.org/Graphics/SVG/1.1/DTD/svg11.dtd">
<svg version="1.1" id="Layer_1" xmlns="http://www.w3.org/2000/svg" xmlns:xlink="http://www.w3.org/1999/xlink" x="0px" y="0px"
	 width="383.78px" height="536.71px" viewBox="0 0 383.78 536.71" enable-background="new 0 0 383.78 536.71" xml:space="preserve">
<path fill="white" d="M243.532-0.767c20.675,38.958,27.929,77.59,19.099,113.981c-3.48,14.431-9.361,28.013-17.427,40.745
	c-2.872-0.112-5.78-0.183-8.729-0.183c-38.59,0-74.335,9.839-103.768,26.567c-2.64,1.145-5.326,1.9-7.936,1.9
	c-7.43,0-10.365-8.171-13.367-13.354c-4.435-8.157-11.83-14.804-31.872-14.804H0.197v338.121c0,34.825,3.693,43.737,44.495,43.737
	h95.649V408.49v-29.615v-2.524v-72.464c0.115-0.102-0.123-1.383,0-1.481v-19.741c30.643-35,78.548-57.55,132.426-57.55
	c42.698,0,81.635,14.154,111.211,37.438C383.979,165.175,339.413,78.466,243.532-0.767z"/>
</svg>
