<?xml version="1.0" encoding="utf-8"?>
<!-- Generator: Adobe Illustrator 15.0.0, SVG Export Plug-In . SVG Version: 6.00 Build 0)  -->
<!DOCTYPE svg PUBLIC "-//W3C//DTD SVG 1.1//EN" "http://www.w3.org/Graphics/SVG/1.1/DTD/svg11.dtd">
<svg version="1.1" id="Layer_1" xmlns="http://www.w3.org/2000/svg" xmlns:xlink="http://www.w3.org/1999/xlink" x="0px" y="0px"
	 width="384.88px" height="384.89px" viewBox="0 0 384.88 384.89" enable-background="new 0 0 384.88 384.89" xml:space="preserve">
<path fill="#803C96" d="M385.315,367.947c0,9.463-7.673,17.137-17.135,17.137H17.57c-9.462,0-17.136-7.674-17.136-17.137V17.339
	c0-9.464,7.674-17.135,17.136-17.135h350.61c9.462,0,17.135,7.671,17.135,17.135V367.947z"/>
<path fill="#FFFFFF" d="M224.683,33.601c12.25,23.082,16.547,45.97,11.315,67.531c-2.062,8.549-5.547,16.597-10.324,24.14
	c-1.701-0.066-3.425-0.108-5.172-0.108c-22.863,0-44.041,5.829-61.479,15.74c-1.564,0.679-3.155,1.125-4.7,1.125
	c-4.403,0-6.143-4.84-7.922-7.912c-2.627-4.833-7.008-8.77-18.883-8.77H80.515v200.325c0,20.633,2.188,25.914,26.361,25.914h56.67
	v-75.514v-17.545v-1.496v-42.934c0.069-0.061-0.073-0.818,0-0.877v-11.696c18.155-20.737,46.538-34.097,78.458-34.097
	c25.298,0,48.365,8.386,65.889,22.181C307.893,131.916,281.489,80.544,224.683,33.601z"/>
</svg>
